<?xml version="1.0" encoding="UTF-8"?>
<svg id="Ebene_1" data-name="Ebene 1" xmlns="http://www.w3.org/2000/svg" viewBox="0 0 494.79 366.6">
  <defs>
    <style>
      .cls-1 {
        fill: #fff;
      }
    </style>
  </defs>
  <path d="M294.27,96.31c-5.61-2.26-36.58-13.19-39.98-11.06-3.2,2.02-7.31,18.22-17.67,23.31-19.94,9.79-28.74-13.91-19.37-29.17-.57-2.35-5.96-1.46-7.95-1.57v89.76c19.61,6.24,39.52-1.23,58.69,5.8,7.82,2.86,16.25,8.51,19.7,16.25,1.9,4.28,2.11,9.99,5.15,13.82,6.04,7.61,19.57,7.4,23.68,21.26,7.57,25.5-17.77,30.09-32.54,39.79-10.58,6.94-16.54,16.61-29.7,21.25-34.45,12.14-47.41-12.91-76.5-15.43-5.16-.44-10.63.38-15.86-.13-14.87-1.47-34.37-10.37-35.66-27.26-.8-10.6,4.4-16.27,6.11-25.83-64.77-23.59-22.26-107.76,35.93-93.4v-20.94c-17.78-.2-36.12,3.49-53.22,8.26-37.14,10.36-76.02,31.09-91.26,68.55-1.35,3.31-5.52,15.61-5.52,18.43v18.45l-3.99-13.47c-5.97-53.84,45.15-87.09,90.03-101.68,20.51-6.67,42.36-10.93,63.96-11.5v-11.98c-41.82,1.67-86.07,12.87-120.91,36.49-60.97,41.34-65.55,109.79-4.42,153.84,66.15,47.65,181.34,53.52,255,21.28,107.9-47.22,104.3-149.63-3.7-193.12ZM86.83,175.54c-.77,1.7-14.01,9.53-17,12.02-13.01,10.83-21.93,23.26-26.07,39.83-1.16,4.69.12,15.46-6.48,12.52-4.79-2.86.59-21.26,2.24-25.73,3.74-10.04,12.66-22.17,20.77-29.16,3.39-2.92,19.18-13.8,22.75-14.3,2.74-.39,5.06,2.05,3.79,4.82ZM343.88,238.47c-6.31,4.97-4.22-8.34-4.6-11.53-4.2-35.24-47.44-59.38-78.17-68.64-5.37-1.62-19.56-3.39-23.2-5.79-2.65-1.75-1.4-3.92,1.1-4.66,7.55-2.26,31.21,6.11,39.26,9.29,23.2,9.17,52.52,27.67,62.51,51.35,2.53,5.97,8.83,25.47,3.1,29.98Z"/>
  <path d="M364.29,249.36c-7.1,27.55-18.5,52.17-39.98,71.33-69.76,62.22-204.19,60.68-273.54-1.49-21.94-19.66-30.79-42.84-39.48-70.32l18.48,19.46c72.68,66.09,223.02,69.39,301.84,12.75,12.55-9.01,23.14-19.65,32.68-31.73Z"/>
  <path d="M240.18,85.18c-1.48,3.13-12.31,19.36-13.91,10.06-.7-4.05,4.27-15.09,4.1-21.91-.44-16.89-18.55-29.62-34.07-31.41v125.16c0,15.38-22.32,33.04-35.98,36.93-36.34,10.34-64.67-21.92-38.99-52.85,15.3-18.44,39.03-20.24,59.97-10.51V3.52c0-3.8,8.5-4.64,10.96-1.95,23.53,24.31,67.5,42.05,47.92,83.61Z"/>
  <path d="M463.08,16.27c-3.77.4-7.28,1.85-10.76,3.23l-128,83.75c12.98,8.02,24.68,17.7,34.96,28.97l1.07.07c39.42-28.25,83.9-48.43,125.27-73.59,21.33-16.55,1.93-45.05-22.54-42.43ZM471.23,37.85c-7.75,1.54-19.88,14.72-24.99,3.55,0-2.22,14.03-10.11,16.65-10.43,4.82-.59,8.67,1.79,8.34,6.88Z"/>
  <path d="M229.08,190.8c-19.81,2.18-37.37,16.97-34.8,38.14,3.29,27.16,78.02,31.92,78.11-5.01.05-21.57-23.51-35.32-43.31-33.13ZM209.54,220.21c-1.7-2.22-1.67-4.85-.66-7.23.13-.3.27-.59.43-.88.24-.44.5-.86.8-1.27.3-.41.62-.8.96-1.17.12-.13.24-.25.36-.37,3.09-3.09,7.68-4.54,10.63-1.58,6.28,6.3-4.08,18.54-12.52,12.5Z"/>
  <path class="cls-1" d="M210.11,210.83c.29-.41.62-.8.96-1.17-.34.37-.66.76-.96,1.17Z"/>
</svg>